<svg version="1.1" id="Layer_1" xmlns="http://www.w3.org/2000/svg" xmlns:xlink="http://www.w3.org/1999/xlink" x="0px" y="0px"
	 width="100%" viewBox="0 0 400 400" enable-background="new 0 0 400 400" xml:space="preserve">
<path fill="#000000" opacity="1.000000" stroke="none" 
	d="
M187.000000,401.000000 
	C124.685989,401.000000 62.871971,401.000000 1.028980,401.000000 
	C1.028980,267.727661 1.028980,134.455292 1.028980,1.091469 
	C134.230637,1.091469 267.461365,1.091469 400.846039,1.091469 
	C400.846039,134.333191 400.846039,267.666565 400.846039,401.000000 
	C329.788696,401.000000 258.644348,401.000000 187.000000,401.000000 
M116.079575,284.511780 
	C116.396797,284.598175 116.714020,284.684601 117.773514,284.886810 
	C118.517235,284.818481 119.260956,284.750153 120.923813,284.872711 
	C134.281891,284.807373 147.639984,284.742065 161.801941,284.866486 
	C165.542419,285.354248 167.723267,284.299500 166.821411,279.213196 
	C166.754623,278.143982 166.687836,277.074768 166.819290,275.086151 
	C166.751495,267.391998 166.683716,259.697845 166.812866,251.178009 
	C166.812866,249.894852 166.812866,248.611694 166.812866,247.134186 
	C164.914062,247.134186 163.459885,247.134186 161.343063,246.945770 
	C160.891098,247.003159 160.439133,247.060562 159.068542,246.949493 
	C154.052780,247.007111 149.037003,247.064743 143.171753,246.949158 
	C141.443466,247.007370 139.715164,247.065582 137.128433,246.954773 
	C135.092972,247.010910 133.057526,247.067047 130.104599,246.948502 
	C125.744720,247.003952 121.384842,247.059402 116.454643,247.052582 
	C116.381096,247.379333 116.307541,247.706100 116.120956,248.959763 
	C116.185989,256.641968 116.251022,264.324158 116.127884,272.741852 
	C116.191017,273.492981 116.254143,274.244080 116.132500,275.736298 
	C116.194878,276.492310 116.257263,277.248322 116.132744,278.659027 
	C116.195259,279.104187 116.257774,279.549316 116.141548,280.774841 
	C116.174728,281.838287 116.207909,282.901703 116.079575,284.511780 
M246.806152,276.882080 
	C246.801590,278.820099 246.459183,280.847290 246.937347,282.657837 
	C247.170532,283.540833 248.933990,284.019745 250.924026,284.871674 
	C259.233978,284.878784 267.543945,284.887238 275.853912,284.892639 
	C285.348846,284.898804 285.348846,284.897644 284.867035,274.077087 
	C284.802643,261.716827 284.738281,249.356583 284.860565,236.076324 
	C284.800873,226.716232 284.741180,217.356140 284.865417,207.075546 
	C284.803314,192.048721 284.741211,177.021896 284.865234,161.075333 
	C284.802734,154.382111 284.740265,147.688873 284.863434,140.075562 
	C284.875519,133.414825 284.787415,126.751724 284.944824,120.094429 
	C285.016357,117.070030 283.957672,115.992073 280.881775,116.052979 
	C272.392517,116.221107 263.897858,116.112114 255.405319,116.118820 
	C209.281982,116.155273 163.158646,116.193558 116.479332,116.086029 
	C116.400948,116.401543 116.322556,116.717056 116.117538,117.958054 
	C116.185631,126.637291 116.253716,135.316528 116.133614,144.898758 
	C116.133614,147.853302 116.133614,150.807846 116.133614,154.232422 
	C118.152634,154.232422 119.772369,154.232651 121.392105,154.232391 
	C161.311737,154.226120 201.231842,154.306961 241.150421,154.099258 
	C245.952194,154.074265 247.108521,155.582321 246.871582,160.063217 
	C246.556503,166.022064 246.935364,172.017609 246.798615,178.913193 
	C246.872284,191.941238 246.945953,204.969284 246.801773,218.912979 
	C246.873795,226.275070 246.945816,233.637146 246.803070,241.894516 
	C246.873901,245.263596 246.944748,248.632660 246.801361,252.917252 
	C246.873535,260.611969 246.945724,268.306671 246.806152,276.882080 
M208.953751,215.100479 
	C208.953751,204.675415 208.953751,194.250351 208.953751,183.976257 
	C177.718140,183.976257 147.120651,183.976257 116.374428,183.976257 
	C116.374428,195.166733 116.374428,206.078125 116.374428,217.297485 
	C127.941231,217.297485 139.248108,217.330826 150.554703,217.290024 
	C169.704529,217.220917 188.854172,217.105011 208.579193,217.090469 
	C208.650467,216.736725 208.721756,216.382980 208.953751,215.100479 
z"/>
<path fill="#F0FCEF" opacity="1.000000" stroke="none" 
	d="
M116.321808,143.995773 
	C116.253716,135.316528 116.185631,126.637291 116.374908,117.435936 
	C116.871559,116.748276 117.005905,116.520744 117.035309,116.231216 
	C163.158646,116.193558 209.281982,116.155273 255.405319,116.118820 
	C263.897858,116.112114 272.392517,116.221107 280.881775,116.052979 
	C283.957672,115.992073 285.016357,117.070030 284.944824,120.094429 
	C284.787415,126.751724 284.875519,133.414825 284.406677,140.515991 
	C282.590820,138.732346 281.231750,136.508286 279.223846,133.222473 
	C277.624542,136.068604 276.304504,138.417786 274.695251,141.281693 
	C269.741211,136.351959 263.570343,138.064972 257.781097,138.051132 
	C217.337692,137.954468 176.893875,138.031097 136.450516,137.925766 
	C133.917801,137.919174 131.141876,137.321228 128.908051,136.167740 
	C124.306862,133.791794 123.085777,133.957016 121.226044,138.744293 
	C120.275513,141.191132 120.005943,144.151764 116.321808,143.995773 
z"/>
<path fill="#EBFCEF" opacity="1.000000" stroke="none" 
	d="
M116.227707,144.447266 
	C120.005943,144.151764 120.275513,141.191132 121.226044,138.744293 
	C123.085777,133.957016 124.306862,133.791794 128.908051,136.167740 
	C131.141876,137.321228 133.917801,137.919174 136.450516,137.925766 
	C176.893875,138.031097 217.337692,137.954468 257.781097,138.051132 
	C263.570343,138.064972 269.741211,136.351959 274.695251,141.281693 
	C276.304504,138.417786 277.624542,136.068604 279.223846,133.222473 
	C281.231750,136.508286 282.590820,138.732346 284.313843,140.976028 
	C284.740265,147.688873 284.802734,154.382111 284.420105,161.550415 
	C283.247620,162.778290 282.461945,163.483765 281.804718,164.293488 
	C280.318878,166.123978 278.896515,168.005951 277.448303,169.866974 
	C275.400757,168.123627 273.473633,166.203506 271.264191,164.697754 
	C269.737854,163.657547 267.818909,162.589203 266.079681,162.596207 
	C262.837006,162.609207 259.579712,163.127335 258.142639,167.050140 
	C257.821808,167.925903 255.624710,168.763809 254.475494,168.563431 
	C251.176483,167.988297 250.672134,169.912766 249.928925,172.330719 
	C249.314636,174.329239 248.013107,176.116501 247.016098,177.997375 
	C246.935364,172.017609 246.556503,166.022064 246.871582,160.063217 
	C247.108521,155.582321 245.952194,154.074265 241.150421,154.099258 
	C201.231842,154.306961 161.311737,154.226120 121.392105,154.232391 
	C119.772369,154.232651 118.152634,154.232422 116.133614,154.232422 
	C116.133614,150.807846 116.133614,147.853302 116.227707,144.447266 
z"/>
<path fill="#E0FDF0" opacity="1.000000" stroke="none" 
	d="
M208.003891,217.008789 
	C188.854172,217.105011 169.704529,217.220917 150.554703,217.290024 
	C139.248108,217.330826 127.941231,217.297485 116.374428,217.297485 
	C116.374428,206.078125 116.374428,195.166733 116.374428,183.976257 
	C147.120651,183.976257 177.718140,183.976257 208.953751,183.976257 
	C208.953751,194.250351 208.953751,204.675415 208.694000,215.685226 
	C208.217712,216.473679 208.074265,216.719940 208.003891,217.008789 
z"/>
<path fill="#E3FDF0" opacity="1.000000" stroke="none" 
	d="
M246.907349,178.455292 
	C248.013107,176.116501 249.314636,174.329239 249.928925,172.330719 
	C250.672134,169.912766 251.176483,167.988297 254.475494,168.563431 
	C255.624710,168.763809 257.821808,167.925903 258.142639,167.050140 
	C259.579712,163.127335 262.837006,162.609207 266.079681,162.596207 
	C267.818909,162.589203 269.737854,163.657547 271.264191,164.697754 
	C273.473633,166.203506 275.400757,168.123627 277.448303,169.866974 
	C278.896515,168.005951 280.318878,166.123978 281.804718,164.293488 
	C282.461945,163.483765 283.247620,162.778290 284.327057,162.010284 
	C284.741211,177.021896 284.803314,192.048721 284.413025,207.516571 
	C282.601685,206.347137 281.542786,203.918884 279.824341,203.288391 
	C275.629120,201.749176 271.158112,200.887222 266.742249,200.045792 
	C262.729553,199.281174 258.643188,198.903229 253.050354,198.146667 
	C252.258087,200.919418 251.171112,204.882553 249.987045,208.816452 
	C249.060287,211.895523 248.013199,214.938370 247.019608,217.997330 
	C246.945953,204.969284 246.872284,191.941238 246.907349,178.455292 
z"/>
<path fill="#DCFDF0" opacity="1.000000" stroke="none" 
	d="
M246.910690,218.455154 
	C248.013199,214.938370 249.060287,211.895523 249.987045,208.816452 
	C251.171112,204.882553 252.258087,200.919418 253.050354,198.146667 
	C258.643188,198.903229 262.729553,199.281174 266.742249,200.045792 
	C271.158112,200.887222 275.629120,201.749176 279.824341,203.288391 
	C281.542786,203.918884 282.601685,206.347137 284.321045,207.976807 
	C284.741180,217.356140 284.800873,226.716232 284.413818,236.519745 
	C280.739960,234.303268 277.587677,231.542786 274.236328,229.050003 
	C273.330231,228.376083 271.829346,228.377380 270.587280,228.301590 
	C265.758545,228.007019 260.923187,227.646622 256.092285,227.673141 
	C254.743179,227.680557 252.836105,228.598755 252.188553,229.693039 
	C251.230026,231.312836 251.449432,233.590790 250.649612,235.353622 
	C249.734848,237.369720 248.253174,239.128601 247.017853,240.999237 
	C246.945816,233.637146 246.873795,226.275070 246.910690,218.455154 
z"/>
<path fill="#D5FEF0" opacity="1.000000" stroke="none" 
	d="
M246.910461,241.446869 
	C248.253174,239.128601 249.734848,237.369720 250.649612,235.353622 
	C251.449432,233.590790 251.230026,231.312836 252.188553,229.693039 
	C252.836105,228.598755 254.743179,227.680557 256.092285,227.673141 
	C260.923187,227.646622 265.758545,228.007019 270.587280,228.301590 
	C271.829346,228.377380 273.330231,228.376083 274.236328,229.050003 
	C277.587677,231.542786 280.739960,234.303268 284.320496,236.979736 
	C284.738281,249.356583 284.802643,261.716827 284.383911,274.510132 
	C283.267334,273.634277 282.290009,272.382172 282.062531,271.006104 
	C281.263824,266.174713 280.723114,261.300690 280.120941,256.720490 
	C271.434937,256.056976 263.054138,261.778229 255.446564,252.801880 
	C254.634598,259.337280 254.011200,264.355072 253.387787,269.372864 
	C251.972198,264.810120 251.337479,260.316284 251.048904,255.800339 
	C250.872604,253.041260 249.691467,251.856750 247.015594,252.001740 
	C246.944748,248.632660 246.873901,245.263596 246.910461,241.446869 
z"/>
<path fill="#CFFEF1" opacity="1.000000" stroke="none" 
	d="
M166.621033,276.005554 
	C166.687836,277.074768 166.754623,278.143982 166.388489,279.620422 
	C164.303055,281.577332 162.650558,283.127045 160.998062,284.676758 
	C147.639984,284.742065 134.281891,284.807373 120.460701,284.417114 
	C120.154366,281.357635 119.104347,279.872375 116.320297,279.994476 
	C116.257774,279.549316 116.195259,279.104187 116.520737,278.259888 
	C116.711578,276.905579 116.514427,275.950409 116.317268,274.995209 
	C116.254143,274.244080 116.191017,273.492981 116.599861,272.348083 
	C118.106720,266.971069 119.139328,261.987305 120.178131,257.004883 
	C120.431526,255.789505 120.609909,254.541748 121.049690,253.395981 
	C121.138290,253.165161 122.752220,253.157181 122.814384,253.338058 
	C123.198456,254.455688 123.398415,255.649185 123.550537,256.831512 
	C123.977402,260.149353 124.351280,263.473999 124.746048,266.795959 
	C125.353073,267.033844 125.960091,267.271729 126.567116,267.509644 
	C128.960098,261.117798 133.946136,261.903809 138.733414,261.981201 
	C143.875519,262.064331 149.020096,261.982880 154.163452,262.004425 
	C160.343658,262.030334 162.666931,264.323853 163.008667,270.618134 
	C163.143875,273.108398 163.007477,275.827026 166.621033,276.005554 
z"/>
<path fill="#CFFEF1" opacity="1.000000" stroke="none" 
	d="
M246.908478,252.459503 
	C249.691467,251.856750 250.872604,253.041260 251.048904,255.800339 
	C251.337479,260.316284 251.972198,264.810120 253.387787,269.372864 
	C254.011200,264.355072 254.634598,259.337280 255.446564,252.801880 
	C263.054138,261.778229 271.434937,256.056976 280.120941,256.720490 
	C280.723114,261.300690 281.263824,266.174713 282.062531,271.006104 
	C282.290009,272.382172 283.267334,273.634277 284.291260,274.970337 
	C285.348846,284.897644 285.348846,284.898804 275.853912,284.892639 
	C267.543945,284.887238 259.233978,284.878784 250.459961,284.387878 
	C249.003220,281.269867 248.010559,278.635620 247.017899,276.001373 
	C246.945724,268.306671 246.873535,260.611969 246.908478,252.459503 
z"/>
<path fill="#D5FEF0" opacity="1.000000" stroke="none" 
	d="
M166.720154,275.545837 
	C163.007477,275.827026 163.143875,273.108398 163.008667,270.618134 
	C162.666931,264.323853 160.343658,262.030334 154.163452,262.004425 
	C149.020096,261.982880 143.875519,262.064331 138.733414,261.981201 
	C133.946136,261.903809 128.960098,261.117798 126.567116,267.509644 
	C125.960091,267.271729 125.353073,267.033844 124.746048,266.795959 
	C124.351280,263.473999 123.977402,260.149353 123.550537,256.831512 
	C123.398415,255.649185 123.198456,254.455688 122.814384,253.338058 
	C122.752220,253.157181 121.138290,253.165161 121.049690,253.395981 
	C120.609909,254.541748 120.431526,255.789505 120.178131,257.004883 
	C119.139328,261.987305 118.106720,266.971069 116.693947,271.980347 
	C116.251022,264.324158 116.185989,256.641968 116.368530,248.404648 
	C116.815376,247.639694 116.951668,247.394806 117.024963,247.114838 
	C121.384842,247.059402 125.744720,247.003952 130.839890,247.282578 
	C133.712418,247.452377 135.849640,247.288086 137.986877,247.123810 
	C139.715164,247.065582 141.443466,247.007370 143.913742,247.297638 
	C149.766205,247.470047 154.876694,247.294006 159.987167,247.117950 
	C160.439133,247.060562 160.891098,247.003159 161.717560,247.374954 
	C163.600021,249.203979 165.107971,250.603836 166.615936,252.003693 
	C166.683716,259.697845 166.751495,267.391998 166.720154,275.545837 
z"/>
<path fill="#D5FEF0" opacity="1.000000" stroke="none" 
	d="
M246.912018,276.441711 
	C248.010559,278.635620 249.003220,281.269867 250.000320,284.292847 
	C248.933990,284.019745 247.170532,283.540833 246.937347,282.657837 
	C246.459183,280.847290 246.801590,278.820099 246.912018,276.441711 
z"/>
<path fill="#D5FEF0" opacity="1.000000" stroke="none" 
	d="
M161.399994,284.771606 
	C162.650558,283.127045 164.303055,281.577332 166.287292,280.011719 
	C167.723267,284.299500 165.542419,285.354248 161.399994,284.771606 
z"/>
<path fill="#E0FDF0" opacity="1.000000" stroke="none" 
	d="
M166.714386,251.590851 
	C165.107971,250.603836 163.600021,249.203979 162.048889,247.469162 
	C163.459885,247.134186 164.914062,247.134186 166.812866,247.134186 
	C166.812866,248.611694 166.812866,249.894852 166.714386,251.590851 
z"/>
<path fill="#D5FEF0" opacity="1.000000" stroke="none" 
	d="
M116.230919,280.384644 
	C119.104347,279.872375 120.154366,281.357635 120.001137,284.321655 
	C119.260956,284.750153 118.517235,284.818481 117.342911,284.634888 
	C116.755699,284.135895 116.531952,283.996613 116.241089,283.965149 
	C116.207909,282.901703 116.174728,281.838287 116.230919,280.384644 
z"/>
<path fill="#E0FDF0" opacity="1.000000" stroke="none" 
	d="
M159.527863,247.033722 
	C154.876694,247.294006 149.766205,247.470047 144.338486,247.384247 
	C149.037003,247.064743 154.052780,247.007111 159.527863,247.033722 
z"/>
<path fill="#E0FDF0" opacity="1.000000" stroke="none" 
	d="
M137.557648,247.039291 
	C135.849640,247.288086 133.712418,247.452377 131.298615,247.369934 
	C133.057526,247.067047 135.092972,247.010910 137.557648,247.039291 
z"/>
<path fill="#D5FEF0" opacity="1.000000" stroke="none" 
	d="
M116.224884,275.365753 
	C116.514427,275.950409 116.711578,276.905579 116.614189,277.932556 
	C116.257263,277.248322 116.194878,276.492310 116.224884,275.365753 
z"/>
<path fill="#B3C9C2" opacity="1.000000" stroke="none" 
	d="
M116.739807,247.083710 
	C116.951668,247.394806 116.815376,247.639694 116.425041,247.941193 
	C116.307541,247.706100 116.381096,247.379333 116.739807,247.083710 
z"/>
<path fill="#D5FEF0" opacity="1.000000" stroke="none" 
	d="
M208.291534,217.049622 
	C208.074265,216.719940 208.217712,216.473679 208.613647,216.149597 
	C208.721756,216.382980 208.650467,216.736725 208.291534,217.049622 
z"/>
<path fill="#C4C9C3" opacity="1.000000" stroke="none" 
	d="
M116.757324,116.158623 
	C117.005905,116.520744 116.871559,116.748276 116.438232,116.973190 
	C116.322556,116.717056 116.400948,116.401543 116.757324,116.158623 
z"/>
<path fill="#B3C9C2" opacity="1.000000" stroke="none" 
	d="
M116.160332,284.238464 
	C116.531952,283.996613 116.755699,284.135895 116.971779,284.576965 
	C116.714020,284.684601 116.396797,284.598175 116.160332,284.238464 
z"/>
</svg>