<svg version="1.1" id="Layer_1" xmlns="http://www.w3.org/2000/svg" xmlns:xlink="http://www.w3.org/1999/xlink" x="0px" y="0px"
	 width="100%" viewBox="0 0 510 510" enable-background="new 0 0 510 510" xml:space="preserve">
<path fill="#0B127A" opacity="1.000000" stroke="none" 
	d="
M232.000000,511.000000 
	C154.666672,511.000000 77.833336,511.000000 1.000000,511.000000 
	C1.000000,341.000000 1.000000,171.000000 1.000000,1.000000 
	C171.000000,1.000000 341.000000,1.000000 511.000000,1.000000 
	C511.000000,171.000000 511.000000,341.000000 511.000000,511.000000 
	C418.166656,511.000000 325.333344,511.000000 232.000000,511.000000 
M240.695297,334.511688 
	C247.607315,334.653412 254.519424,334.861328 261.431274,334.853577 
	C262.300781,334.852600 263.169006,333.716034 264.883942,333.085907 
	C266.571747,333.095093 268.259552,333.104279 270.198730,333.780762 
	C273.250000,333.200195 277.319061,333.621765 279.111206,331.801514 
	C281.724823,329.146942 278.893066,325.989502 276.763519,323.626495 
	C275.687531,322.432526 274.052246,321.717957 273.063873,320.473633 
	C265.788422,311.314056 258.740662,301.970856 251.347702,292.908569 
	C247.971436,288.769989 246.452393,277.890930 249.736526,274.626129 
	C253.872681,270.514282 258.399811,266.795685 262.546326,263.096466 
	C263.488922,258.625946 264.155884,253.815292 265.537872,249.219650 
	C269.535431,235.926270 269.878906,222.700363 265.640747,209.427460 
	C264.441223,205.670853 264.208527,200.971359 261.761536,198.370193 
	C255.300034,191.501556 248.299194,184.936951 240.626526,179.503098 
	C237.169846,177.055038 231.602356,177.587448 226.426285,176.833160 
	C225.932510,176.595734 225.438736,176.358307 225.275238,175.644409 
	C224.970901,175.107086 224.684448,174.115738 224.359451,174.102936 
	C221.251724,173.980499 218.137451,174.023575 214.084732,174.002350 
	C192.125992,173.995773 170.166916,174.057495 148.208633,173.952347 
	C137.990723,173.903427 137.991608,173.756622 137.991302,184.110367 
	C137.989914,231.022278 137.972137,277.934204 138.042770,324.846008 
	C138.045792,326.853760 138.865387,328.860260 139.173904,330.875000 
	C139.173904,330.875000 139.216721,330.751282 139.183624,331.486237 
	C140.064362,332.972900 140.945099,334.459534 141.825836,335.946167 
	C141.974075,335.423676 142.122299,334.901184 142.270538,334.378693 
	C153.914825,334.216583 165.559113,334.054474 177.717102,333.489899 
	C179.014511,330.218842 181.207108,326.998505 181.395981,323.664642 
	C181.667923,318.863800 180.329681,313.992157 179.959259,309.129364 
	C179.500000,303.100128 179.327469,297.049103 179.074402,290.269196 
	C179.321518,289.867249 179.568649,289.465302 180.115707,289.111359 
	C180.115707,289.111359 180.402222,289.010651 181.011398,289.047058 
	C181.914536,289.610718 182.817657,290.174408 183.720795,290.738068 
	C183.319138,290.344147 182.917480,289.950195 182.515823,289.556274 
	C183.924576,288.751465 185.245987,287.643402 186.760864,287.206970 
	C189.631577,286.379944 198.191299,290.277374 199.908035,292.823517 
	C202.447998,296.590637 205.184830,300.230530 207.598038,304.075073 
	C208.665268,305.775299 209.144928,307.844330 209.891327,309.745911 
	C212.244537,311.112366 214.062378,313.182129 216.071548,315.045624 
	C217.276382,316.163086 218.780121,316.958252 220.038666,317.941772 
	C220.038666,317.941772 220.113831,317.849396 220.045944,318.667023 
	C219.894638,322.220337 219.256134,325.748322 223.195892,328.167419 
	C225.960968,329.865295 228.208130,332.391663 230.806274,334.392609 
	C231.193481,334.690826 232.238922,334.134277 233.669891,333.993011 
	C234.129852,333.994659 234.589828,333.996307 235.351166,334.373444 
	C235.882736,334.247253 236.414307,334.121033 237.725250,333.997620 
	C238.504654,333.997070 239.284042,333.996521 240.695297,334.511688 
M368.996674,313.001129 
	C368.996674,313.001129 368.979736,313.014648 368.348816,312.478973 
	C361.254852,312.318390 354.161163,312.143707 347.066864,312.000122 
	C331.373077,311.682495 315.679382,311.345490 299.983978,311.154602 
	C298.988586,311.142487 297.978760,312.316193 296.362854,313.550232 
	C296.304016,320.253693 296.245178,326.957123 296.264221,334.440857 
	C297.357056,334.956421 298.434204,335.873352 299.545532,335.916870 
	C303.952026,336.089478 308.369202,335.989563 312.782440,335.989594 
	C329.029724,335.989746 345.277924,336.074036 361.523346,335.900330 
	C364.025085,335.873596 366.514160,334.659973 369.286530,333.495880 
	C369.575287,333.004822 369.864044,332.513733 370.931244,331.950226 
	C371.614319,330.317810 372.820801,328.700928 372.869751,327.049683 
	C372.966858,323.774933 371.879364,320.408813 372.302856,317.215942 
	C372.718658,314.081360 371.403595,313.382111 368.996674,313.001129 
M300.437866,232.932159 
	C299.257599,237.064758 297.325684,241.142990 297.022186,245.339005 
	C295.373322,268.134796 312.120300,284.832825 335.471497,284.088898 
	C357.882782,283.374908 374.841766,259.901062 367.192932,238.885605 
	C362.900604,227.092331 356.877563,215.853424 350.856873,204.787720 
	C345.656342,195.229492 339.357025,186.269104 332.907196,176.034836 
	C320.625732,194.827759 308.713318,212.364563 300.437866,232.932159 
z"/>
<path fill="#FDFEFE" opacity="1.000000" stroke="none" 
	d="
M179.815796,289.063354 
	C179.568649,289.465302 179.321518,289.867249 178.827881,290.987335 
	C178.446198,303.021484 178.368759,314.338715 178.123611,325.652344 
	C178.078552,327.732361 177.353241,329.797638 176.479004,331.909210 
	C165.290222,331.985321 154.563950,332.074615 143.838837,331.999634 
	C142.295303,331.988861 140.757294,331.187012 139.216721,330.751282 
	C139.216721,330.751282 139.173904,330.875000 139.156815,330.416138 
	C139.097885,279.897278 139.087952,229.837189 138.957687,179.777405 
	C138.946442,175.460815 141.191757,174.971222 144.635956,174.975632 
	C168.083847,175.005615 191.531876,174.934097 215.376541,174.995377 
	C218.830475,175.437225 221.887711,175.779053 224.944962,176.120880 
	C225.438736,176.358307 225.932510,176.595734 227.051926,176.944122 
	C227.993210,177.157791 228.308105,177.262878 228.624619,177.362854 
	C250.662506,184.323486 263.524078,199.517548 266.446106,222.138916 
	C269.166382,243.198334 263.259888,261.605469 245.616318,275.039246 
	C240.498199,278.936188 240.163269,282.030121 244.083557,287.275848 
	C245.476471,289.139679 246.928711,290.959259 248.357895,292.795929 
	C257.436829,304.463501 266.561096,316.096466 275.515442,327.858826 
	C276.258301,328.834656 275.854645,330.683289 275.520874,332.053772 
	C261.041504,332.019775 247.024933,332.058350 232.742798,332.010468 
	C228.356079,327.232452 224.234955,322.540924 220.113831,317.849396 
	C220.113831,317.849396 220.038666,317.941772 220.011627,317.583466 
	C217.153992,314.135651 213.950119,311.305939 211.577713,307.897491 
	C207.740051,302.384003 204.806427,296.227173 200.833771,290.825378 
	C196.163330,284.474792 185.289719,283.678009 179.956039,288.710175 
	C179.838669,288.676880 179.815796,289.063354 179.815796,289.063354 
M182.147064,248.603592 
	C191.408005,248.906784 200.677032,249.600952 209.927734,249.409454 
	C220.366013,249.193420 228.134537,240.648804 227.871933,230.596344 
	C227.582260,219.507126 219.938583,211.352173 209.337433,211.098022 
	C201.861526,210.918823 194.376801,210.957184 186.898636,211.070496 
	C181.205460,211.156769 178.418304,213.998932 178.315887,219.794083 
	C178.192551,226.773331 177.995346,233.773865 178.426163,240.728271 
	C178.580887,243.226105 180.467712,245.616638 182.147064,248.603592 
z"/>
<path fill="#079CB6" opacity="1.000000" stroke="none" 
	d="
M300.587646,232.572174 
	C308.713318,212.364563 320.625732,194.827759 332.907196,176.034836 
	C339.357025,186.269104 345.656342,195.229492 350.856873,204.787720 
	C356.877563,215.853424 362.900604,227.092331 367.192932,238.885605 
	C374.841766,259.901062 357.882782,283.374908 335.471497,284.088898 
	C312.120300,284.832825 295.373322,268.134796 297.022186,245.339005 
	C297.325684,241.142990 299.257599,237.064758 300.587646,232.572174 
z"/>
<path fill="#FCFDFD" opacity="1.000000" stroke="none" 
	d="
M370.152802,332.022644 
	C369.864044,332.513733 369.575287,333.004822 368.678253,333.736816 
	C359.580322,333.977661 351.090515,334.012970 342.601074,333.969879 
	C327.129395,333.891327 311.657928,333.766235 296.186340,333.660583 
	C296.245178,326.957123 296.304016,320.253693 297.139587,313.279449 
	C321.604095,313.010651 345.291931,313.012634 368.979736,313.014648 
	C368.979736,313.014648 368.996674,313.001129 369.226776,313.361816 
	C369.688843,319.822571 369.920807,325.922607 370.152802,332.022644 
z"/>
<path fill="#1F2467" opacity="1.000000" stroke="none" 
	d="
M275.983673,332.126373 
	C275.854645,330.683289 276.258301,328.834656 275.515442,327.858826 
	C266.561096,316.096466 257.436829,304.463501 248.357895,292.795929 
	C246.928711,290.959259 245.476471,289.139679 244.083557,287.275848 
	C240.163269,282.030121 240.498199,278.936188 245.616318,275.039246 
	C263.259888,261.605469 269.166382,243.198334 266.446106,222.138916 
	C263.524078,199.517548 250.662506,184.323486 228.624619,177.362854 
	C228.308105,177.262878 227.993210,177.157791 227.335083,176.911316 
	C231.602356,177.587448 237.169846,177.055038 240.626526,179.503098 
	C248.299194,184.936951 255.300034,191.501556 261.761536,198.370193 
	C264.208527,200.971359 264.441223,205.670853 265.640747,209.427460 
	C269.878906,222.700363 269.535431,235.926270 265.537872,249.219650 
	C264.155884,253.815292 263.488922,258.625946 262.546326,263.096466 
	C258.399811,266.795685 253.872681,270.514282 249.736526,274.626129 
	C246.452393,277.890930 247.971436,288.769989 251.347702,292.908569 
	C258.740662,301.970856 265.788422,311.314056 273.063873,320.473633 
	C274.052246,321.717957 275.687531,322.432526 276.763519,323.626495 
	C278.893066,325.989502 281.724823,329.146942 279.111206,331.801514 
	C277.319061,333.621765 273.250000,333.200195 270.474487,333.418610 
	C272.494690,332.746429 274.239197,332.436401 275.983673,332.126373 
z"/>
<path fill="#131A58" opacity="1.000000" stroke="none" 
	d="
M214.979858,174.895355 
	C191.531876,174.934097 168.083847,175.005615 144.635956,174.975632 
	C141.191757,174.971222 138.946442,175.460815 138.957687,179.777405 
	C139.087952,229.837189 139.097885,279.897278 139.222153,330.412323 
	C138.865387,328.860260 138.045792,326.853760 138.042770,324.846008 
	C137.972137,277.934204 137.989914,231.022278 137.991302,184.110367 
	C137.991608,173.756622 137.990723,173.903427 148.208633,173.952347 
	C170.166916,174.057495 192.125992,173.995773 214.544312,174.229736 
	C215.003891,174.457108 214.979858,174.895340 214.979858,174.895355 
z"/>
<path fill="#1F2467" opacity="1.000000" stroke="none" 
	d="
M180.073410,288.743469 
	C185.289719,283.678009 196.163330,284.474792 200.833771,290.825378 
	C204.806427,296.227173 207.740051,302.384003 211.577713,307.897491 
	C213.950119,311.305939 217.153992,314.135651 220.067047,317.561707 
	C218.780121,316.958252 217.276382,316.163086 216.071548,315.045624 
	C214.062378,313.182129 212.244537,311.112366 209.891327,309.745911 
	C209.144928,307.844330 208.665268,305.775299 207.598038,304.075073 
	C205.184830,300.230530 202.447998,296.590637 199.908035,292.823517 
	C198.191299,290.277374 189.631577,286.379944 186.760864,287.206970 
	C185.245987,287.643402 183.924576,288.751465 182.515823,289.556274 
	C182.917480,289.950195 183.319138,290.344147 183.720795,290.738068 
	C182.817657,290.174408 181.914536,289.610718 180.630280,288.952942 
	C180.249146,288.858856 180.073410,288.743469 180.073410,288.743469 
z"/>
<path fill="#131A58" opacity="1.000000" stroke="none" 
	d="
M296.225281,334.050720 
	C311.657928,333.766235 327.129395,333.891327 342.601074,333.969879 
	C351.090515,334.012970 359.580322,333.977661 368.539551,333.986481 
	C366.514160,334.659973 364.025085,335.873596 361.523346,335.900330 
	C345.277924,336.074036 329.029724,335.989746 312.782440,335.989594 
	C308.369202,335.989563 303.952026,336.089478 299.545532,335.916870 
	C298.434204,335.873352 297.357056,334.956421 296.225281,334.050720 
z"/>
<path fill="#303775" opacity="1.000000" stroke="none" 
	d="
M176.941895,331.869720 
	C177.353241,329.797638 178.078552,327.732361 178.123611,325.652344 
	C178.368759,314.338715 178.446198,303.021484 178.806213,291.356476 
	C179.327469,297.049103 179.500000,303.100128 179.959259,309.129364 
	C180.329681,313.992157 181.667923,318.863800 181.395981,323.664642 
	C181.207108,326.998505 179.014511,330.218842 177.422470,333.354004 
	C177.065857,332.768677 177.003876,332.319183 176.941895,331.869720 
z"/>
<path fill="#131A58" opacity="1.000000" stroke="none" 
	d="
M176.479004,331.909210 
	C177.003876,332.319183 177.065857,332.768677 177.165619,333.555237 
	C165.559113,334.054474 153.914825,334.216583 142.270538,334.378693 
	C142.122299,334.901184 141.974075,335.423676 141.825836,335.946167 
	C140.945099,334.459534 140.064362,332.972900 139.200165,331.118744 
	C140.757294,331.187012 142.295303,331.988861 143.838837,331.999634 
	C154.563950,332.074615 165.290222,331.985321 176.479004,331.909210 
z"/>
<path fill="#131A58" opacity="1.000000" stroke="none" 
	d="
M368.664276,312.746826 
	C345.291931,313.012634 321.604095,313.010651 297.445984,312.973450 
	C297.978760,312.316193 298.988586,311.142487 299.983978,311.154602 
	C315.679382,311.345490 331.373077,311.682495 347.066864,312.000122 
	C354.161163,312.143707 361.254852,312.318390 368.664276,312.746826 
z"/>
<path fill="#1F2467" opacity="1.000000" stroke="none" 
	d="
M220.079895,318.258209 
	C224.234955,322.540924 228.356079,327.232452 232.731766,332.323242 
	C232.984161,333.139374 232.982010,333.556244 232.979858,333.973145 
	C232.238922,334.134277 231.193481,334.690826 230.806274,334.392609 
	C228.208130,332.391663 225.960968,329.865295 223.195892,328.167419 
	C219.256134,325.748322 219.894638,322.220337 220.079895,318.258209 
z"/>
<path fill="#131A58" opacity="1.000000" stroke="none" 
	d="
M370.542023,331.986450 
	C369.920807,325.922607 369.688843,319.822571 369.223389,313.370911 
	C371.403595,313.382111 372.718658,314.081360 372.302856,317.215942 
	C371.879364,320.408813 372.966858,323.774933 372.869751,327.049683 
	C372.820801,328.700928 371.614319,330.317810 370.542023,331.986450 
z"/>
<path fill="#131A58" opacity="1.000000" stroke="none" 
	d="
M233.324875,333.983093 
	C232.982010,333.556244 232.984161,333.139374 232.997345,332.409729 
	C247.024933,332.058350 261.041504,332.019775 275.520874,332.053772 
	C274.239197,332.436401 272.494690,332.746429 270.348785,333.084961 
	C268.259552,333.104279 266.571747,333.095093 263.989258,333.068970 
	C261.113312,333.043335 259.127777,332.946716 257.151550,333.042542 
	C251.453506,333.318787 245.759216,333.672638 240.063446,333.995972 
	C239.284042,333.996521 238.504654,333.997070 237.185135,333.809448 
	C236.113281,333.746826 235.581528,333.872375 235.049789,333.997925 
	C234.589828,333.996307 234.129852,333.994659 233.324875,333.983093 
z"/>
<path fill="#1F2467" opacity="1.000000" stroke="none" 
	d="
M240.379364,334.253845 
	C245.759216,333.672638 251.453506,333.318787 257.151550,333.042542 
	C259.127777,332.946716 261.113312,333.043335 263.566223,333.078857 
	C263.169006,333.716034 262.300781,334.852600 261.431274,334.853577 
	C254.519424,334.861328 247.607315,334.653412 240.379364,334.253845 
z"/>
<path fill="#1F2467" opacity="1.000000" stroke="none" 
	d="
M215.376541,174.995361 
	C214.979858,174.895340 215.003891,174.457108 215.014481,174.238129 
	C218.137451,174.023575 221.251724,173.980499 224.359451,174.102936 
	C224.684448,174.115738 224.970901,175.107086 225.110107,175.882645 
	C221.887711,175.779053 218.830475,175.437225 215.376541,174.995361 
z"/>
<path fill="#1F2467" opacity="1.000000" stroke="none" 
	d="
M235.200470,334.185669 
	C235.581528,333.872375 236.113281,333.746826 236.795441,333.808075 
	C236.414307,334.121033 235.882736,334.247253 235.200470,334.185669 
z"/>
<path fill="#303775" opacity="1.000000" stroke="none" 
	d="
M179.956039,288.710175 
	C180.073410,288.743469 180.249146,288.858856 180.325684,288.934753 
	C180.402222,289.010651 180.115707,289.111359 179.965759,289.087341 
	C179.815796,289.063354 179.838669,288.676880 179.956039,288.710175 
z"/>
<path fill="#101877" opacity="1.000000" stroke="none" 
	d="
M181.855560,248.329865 
	C180.467712,245.616638 178.580887,243.226105 178.426163,240.728271 
	C177.995346,233.773865 178.192551,226.773331 178.315887,219.794083 
	C178.418304,213.998932 181.205460,211.156769 186.898636,211.070496 
	C194.376801,210.957184 201.861526,210.918823 209.337433,211.098022 
	C219.938583,211.352173 227.582260,219.507126 227.871933,230.596344 
	C228.134537,240.648804 220.366013,249.193420 209.927734,249.409454 
	C200.677032,249.600952 191.408005,248.906784 181.855560,248.329865 
z"/>
</svg>